<?xml version="1.0" encoding="UTF-8"?>
<svg version="1.1" xmlns="http://www.w3.org/2000/svg" width="392" height="392">
<path d="M0 0 C129.36 0 258.72 0 392 0 C392 129.36 392 258.72 392 392 C262.64 392 133.28 392 0 392 C0 262.64 0 133.28 0 0 Z " fill="#FEFEFE" transform="translate(0,0)"/>
<path d="M0 0 C0.71417084 0.00215515 1.42834167 0.0043103 2.16415405 0.00653076 C25.49616693 0.11882092 47.77131354 3.79190677 68.8125 14.3125 C68.8125 14.9725 68.8125 15.6325 68.8125 16.3125 C69.54082031 16.57933594 70.26914063 16.84617187 71.01953125 17.12109375 C89.05612023 24.81502332 101.31070672 41.90375833 108.8125 59.3125 C110.3487863 63.60070101 111.62554088 67.91657603 112.8125 72.3125 C113.03808594 73.00472656 113.26367188 73.69695312 113.49609375 74.41015625 C114.85339007 78.81902912 114.89139346 82.95841634 114.859375 87.56640625 C114.85260742 88.82912354 114.84583984 90.09184082 114.83886719 91.39282227 C114.82581543 92.83806274 114.82581543 92.83806274 114.8125 94.3125 C106.74597826 94.33562737 98.67947028 94.35341709 90.61292362 94.36431217 C86.86766963 94.36954014 83.12243824 94.37663622 79.37719727 94.38793945 C75.76568313 94.39877141 72.15419079 94.40477749 68.54266167 94.40737724 C67.16189671 94.40923094 65.781133 94.41285049 64.40037727 94.41823006 C62.47274048 94.42544447 60.54508193 94.42590809 58.61743164 94.42602539 C57.51822891 94.428246 56.41902618 94.43046661 55.28651428 94.43275452 C52.8125 94.3125 52.8125 94.3125 51.8125 93.3125 C51.73077348 91.58413534 51.67298182 89.85463041 51.625 88.125 C50.85158963 78.44005523 47.61406635 69.32304509 40.3125 62.6875 C38.8361882 61.53158976 37.33825026 60.40232161 35.8125 59.3125 C34.2965625 58.1678125 34.2965625 58.1678125 32.75 57 C25.57086573 52.87581649 19.04987786 51.62507907 10.8125 51.3125 C9.67941406 51.26367676 9.67941406 51.26367676 8.5234375 51.21386719 C-6.48184648 50.63897434 -21.791647 50.64686822 -34.13671875 60.3984375 C-41.47679183 67.24917238 -45.18964535 74.74316829 -45.625 84.8125 C-45.35010523 93.02498127 -41.97346153 99.35333917 -36.4453125 105.32421875 C-30.29647367 110.73902665 -23.03714349 114.97531291 -15.1875 117.3125 C-15.1875 117.9725 -15.1875 118.6325 -15.1875 119.3125 C-14.23262695 119.53671631 -13.27775391 119.76093262 -12.29394531 119.99194336 C-2.74015826 122.28128003 6.5885222 125.01779699 15.89892578 128.14916992 C18.09996052 128.88756716 20.30554 129.61112013 22.51171875 130.33398438 C23.9299778 130.80642107 25.34795797 131.27969599 26.765625 131.75390625 C27.4166217 131.96648575 28.06761841 132.17906525 28.73834229 132.39808655 C32.26838567 133.59899392 34.91203073 134.99552666 37.8125 137.3125 C39.73717865 138.06279846 41.66413182 138.80866193 43.609375 139.50390625 C49.982609 141.84301873 55.92394317 144.82251119 61.76953125 148.26171875 C63.78505467 149.29838376 65.59952196 149.85995842 67.8125 150.3125 C67.8125 150.9725 67.8125 151.6325 67.8125 152.3125 C68.50214844 152.55226562 69.19179687 152.79203125 69.90234375 153.0390625 C86.74828196 160.41057372 101.86018908 176.41076385 108.64453125 193.39550781 C110.29319415 197.96737685 111.6223044 202.59951663 112.8125 207.3125 C113.08852051 208.35615723 113.08852051 208.35615723 113.37011719 209.42089844 C114.81241985 215.24409904 115.19813689 220.82392866 115.1875 226.8125 C115.18588867 227.76866211 115.18427734 228.72482422 115.18261719 229.70996094 C115.03033287 238.6708478 113.45208946 246.77752083 110.8125 255.3125 C110.53535156 256.240625 110.25820313 257.16875 109.97265625 258.125 C104.03554608 275.19761173 90.15845605 287.69186333 74.8125 296.3125 C74.1525 296.3125 73.4925 296.3125 72.8125 296.3125 C72.8125 296.9725 72.8125 297.6325 72.8125 298.3125 C69.97940656 299.41728537 67.1460331 300.5213433 64.3125 301.625 C63.12527344 302.0880957 63.12527344 302.0880957 61.9140625 302.56054688 C60.31955126 303.18136068 58.72399886 303.79950665 57.12744141 304.41503906 C55.65704183 304.9850864 54.19008142 305.56415015 52.72802734 306.15527344 C48.01896443 308.01944636 43.43077304 309.12678408 38.4375 309.9375 C37.7465625 310.05867188 37.055625 310.17984375 36.34375 310.3046875 C26.10072923 312.04335523 16.00953725 312.50674934 5.625 312.5 C3.69986572 312.4987915 3.69986572 312.4987915 1.73583984 312.49755859 C-8.30939409 312.43256977 -18.04560779 312.07116203 -27.76171875 309.2890625 C-30.59740078 308.48071529 -33.21639656 307.95848491 -36.125 307.5625 C-60.68829714 303.22186256 -85.0962219 288.00608276 -100.1875 268.3125 C-112.34321384 250.87968361 -118.1875 233.63077499 -118.1875 212.3125 C-97.3975 212.3125 -76.6075 212.3125 -55.1875 212.3125 C-54.1975 219.7375 -54.1975 219.7375 -53.1875 227.3125 C-49.51156905 238.60285936 -43.56570255 248.35884792 -33.1328125 254.52734375 C-22.35160177 259.75998266 -10.68046835 260.83054391 1.12329102 260.75854492 C3.24528807 260.75001893 5.36459333 260.7789523 7.48632812 260.81054688 C19.95154852 260.8745623 33.29992606 259.18048474 42.8125 250.3125 C51.00844919 240.2932619 51.93681595 230.84962922 50.8125 218.3125 C49.30300444 211.0090724 45.64772353 205.87656488 39.8125 201.3125 C37.52338902 199.81166264 35.25679029 198.55958688 32.8125 197.3125 C32.8125 196.6525 32.8125 195.9925 32.8125 195.3125 C31.96558594 195.03148437 31.11867187 194.75046875 30.24609375 194.4609375 C26.7830467 193.30264873 23.32488537 192.1344768 19.875 190.9375 C18.71097656 190.53789062 17.54695312 190.13828125 16.34765625 189.7265625 C13.26946692 188.49528677 10.62008798 187.02292515 7.77905273 185.33837891 C3.82641151 183.27643 -0.45239053 182.04129737 -4.6875 180.6875 C-5.59886719 180.3884375 -6.51023437 180.089375 -7.44921875 179.78125 C-12.33605687 178.18756253 -17.24385142 176.72083131 -22.1875 175.3125 C-24.80095636 174.4856513 -27.40112727 173.6214628 -30 172.75 C-31.00063477 172.41838867 -31.00063477 172.41838867 -32.02148438 172.08007812 C-36.93389058 170.43930471 -36.93389058 170.43930471 -39.1875 169.3125 C-39.1875 168.6525 -39.1875 167.9925 -39.1875 167.3125 C-42.1575 166.6525 -45.1275 165.9925 -48.1875 165.3125 C-48.1875 164.6525 -48.1875 163.9925 -48.1875 163.3125 C-48.74695313 163.20035156 -49.30640625 163.08820313 -49.8828125 162.97265625 C-61.63982161 160.08065883 -71.36593642 152.55732617 -80.01953125 144.35546875 C-81.88767797 142.59503499 -83.79553677 141.01934308 -85.8125 139.4375 C-97.53098141 129.36950893 -105.52644369 112.34452329 -108.1875 97.3125 C-109.85004985 73.24340803 -106.69477375 53.79963467 -90.66015625 35.0078125 C-77.15302463 20.28439888 -60.69493777 11.28248753 -41.875 5.0625 C-40.7929126 4.69294189 -40.7929126 4.69294189 -39.68896484 4.31591797 C-26.8984442 0.28106221 -13.30472033 -0.07309534 0 0 Z " fill="#020202" transform="translate(180.1875,40.6875)"/>
<path d="M0 0 C2.71484375 2.2265625 2.71484375 2.2265625 5 4.4375 C5.96099609 5.31535156 5.96099609 5.31535156 6.94140625 6.2109375 C13.77108877 13.22164775 14.53165133 21.76348702 14.48999023 31.12402344 C14.18501591 39.5588486 11.26015834 45.31391384 5.4375 51.375 C4.30484279 52.41043342 3.16079917 53.43371715 2 54.4375 C1.360625 55.035625 0.72125 55.63375 0.0625 56.25 C-6.29704625 59.91155693 -13.80876792 59.83108584 -20.9375 59.875 C-21.87529297 59.90787109 -22.81308594 59.94074219 -23.77929688 59.97460938 C-31.94726315 60.03704692 -37.37206505 57.60980733 -43.48828125 52.26171875 C-44.09027344 51.55660156 -44.69226563 50.85148437 -45.3125 50.125 C-45.92738281 49.42761719 -46.54226563 48.73023438 -47.17578125 48.01171875 C-51.70998917 41.61333969 -53.6929896 36.37145856 -53.5 28.5 C-53.48791504 27.70875732 -53.47583008 26.91751465 -53.46337891 26.10229492 C-53.26189872 20.18060898 -52.42923089 15.3943945 -49 10.4375 C-48.57589844 9.81875 -48.15179688 9.2 -47.71484375 8.5625 C-37.3616001 -4.81885112 -14.48096173 -9.45919064 0 0 Z " fill="#5371FF" transform="translate(368,290.5625)"/>
<path d="M0 0 C0.66 0.33 1.32 0.66 2 1 C-3.28 6.28 -8.56 11.56 -14 17 C-14.66 16.67 -15.32 16.34 -16 16 C-10.96679794 10.22494276 -5.96260189 4.82082706 0 0 Z " fill="#343434" transform="translate(103,63)"/>
<path d="M0 0 C0.66 0.33 1.32 0.66 2 1 C-1.63 4.63 -5.26 8.26 -9 12 C-9.33 11.34 -9.66 10.68 -10 10 C-3.84965831 2.51708428 -3.84965831 2.51708428 0 0 Z " fill="#7890FF" transform="translate(329,291)"/>
<path d="M0 0 C0.66 0 1.32 0 2 0 C0.44499019 3.81684226 -2.03595495 6.19195732 -5 9 C-5.66 8.67 -6.32 8.34 -7 8 C-5.88200014 6.66079162 -4.75538103 5.32877444 -3.625 4 C-2.68527344 2.88625 -2.68527344 2.88625 -1.7265625 1.75 C-1.15679687 1.1725 -0.58703125 0.595 0 0 Z " fill="#CACACA" transform="translate(146,100)"/>
</svg>
